<?xml version="1.0" encoding="utf-8"?>
<!-- Generator: Adobe Illustrator 24.0.0, SVG Export Plug-In . SVG Version: 6.00 Build 0)  -->
<svg version="1.1" id="Layer_1" xmlns="http://www.w3.org/2000/svg" xmlns:xlink="http://www.w3.org/1999/xlink" x="0px" y="0px"
	 viewBox="0 0 1366 430" style="enable-background:new 0 0 1366 430;" xml:space="preserve">
<style type="text/css">
	.st0{fill:url(#SVGID_1_);}
	.st1{fill:#FFFFFF;}
	.st2{fill:#B3B3B3;}
	.st3{fill:#E6E6E6;}
</style>
<g>
	<g>
		<linearGradient id="SVGID_1_" gradientUnits="userSpaceOnUse" x1="1103.9449" y1="95.232" x2="1226.3491" y2="307.2424">
			<stop  offset="0" style="stop-color:#0EEFE1"/>
			<stop  offset="0.4997" style="stop-color:#0DC2E3"/>
			<stop  offset="0.9986" style="stop-color:#1043E7"/>
		</linearGradient>
		<path class="st0" d="M1268.53,226.55c0,58.84-67.27,106.15-106.54,106.54c-39.27,0.39-106.54-47.7-106.54-106.54v-67.02
			c0-34.71,28.14-62.85,62.85-62.85h87.39c34.71,0,62.85,28.14,62.85,62.85V226.55z"/>
		<path class="st1" d="M1268.53,159.52c0-0.61-0.03-1.21-0.05-1.81l-34.17-1.16c0,0-133.37,109.26-112.76,103.43
			s98.37,19.05,98.37,19.05s-1.56-12.44,10.5-11.28c8.27,0.8,16.91,5.99,21.51,9.18c10.11-14.98,16.59-32.13,16.59-50.39V159.52z"/>
		<path class="st2" d="M1121.55,259.99c20.61-5.83,98.37,19.05,98.37,19.05s-1.56-12.44,10.5-11.28c8.27,0.8,16.91,5.99,21.51,9.18
			c6.89-10.2,12.08-21.42,14.7-33.3c-9.89-6.15-24.73-14.37-33.49-14.37c14.78-19.44,23.72-49.38,23.72-49.38l-76.47,21.81
			C1146.11,231.01,1110.12,263.23,1121.55,259.99z"/>
		<path class="st1" d="M1247.54,159.67c13.22-9.33,48.99-42.77,48.99-42.77s-94.1,28.77-118.21,38.88
			c-24.11,10.11-80.1,49.77-80.1,49.77l-21,1.56c0,0-10.11,14.78-12.44,27.22s17.11,41.99,42.77,52.88c0,0,8.55-22.55,27.22-29.55
			c18.66-7,52.1,3.11,52.1,3.11c14-14.78,12.44-28,12.44-28s13.22-4.67,28-15.55s29.55-37.33,29.55-37.33h-41.22
			C1215.65,179.89,1234.32,169,1247.54,159.67z"/>
		<path class="st2" d="M1076.06,224.6c-7.24,2.9-12.68,7.6-10.65,15.31c3.56,4.12,8.45,9.61,13.71,14.98
			c0.88-5.29,3.89-16.38,13.65-16.68c12.83-0.39,50.16,2.72,71.55,3.89c13.97,0.76,22.96-4.45,27.52-8.15
			c-36.55,4.89-59.79-4.68-59.79-4.68C1104.06,221.49,1087.73,219.94,1076.06,224.6z"/>
		<path class="st3" d="M1247.54,159.67c7.5-5.29,22.24-18.34,33.61-28.64l-131.98,61.69l53.66,2.33
			c-3.11,14-70.77,34.22-70.77,34.22s23.24,9.57,59.79,4.68c2.43-0.33,4.93-0.72,7.48-1.18c0,0,13.22-4.67,28-15.55
			s29.55-37.33,29.55-37.33h-41.22C1215.65,179.89,1234.32,169,1247.54,159.67z"/>
		<path class="st3" d="M1132.05,251.82c-17.89,3.89-31.11,21-31.11,21c-6.16-2.92-14.36-10.31-21.82-17.93
			c-5.26-5.38-10.16-10.87-13.71-14.98c-0.2-0.23-0.39-0.46-0.58-0.68c2.17,14.07,20,38.33,42.73,47.97c0,0,8.55-22.55,27.22-29.55
			c12.59-4.72,31.91-1.66,43.15,0.84C1167.74,253.93,1148.57,248.23,1132.05,251.82z"/>
	</g>
	<g>
		<g>
			<path class="st1" d="M118.87,231.04c0.83,8.74,4.3,13.74,11.52,13.74c7.36,0,11.66-6.11,11.66-16.24v-62.17h22.2v60.78
				c0,22.2-12.91,35.8-33.86,35.8c-20.54,0-32.61-12.21-33.86-31.92H118.87z"/>
			<path class="st1" d="M235.17,243.11h-37.05l-6.25,17.62h-22.34l34.42-94.37h26.65l34.56,94.37h-23.73L235.17,243.11z
				 M204.22,226.04h24.84l-9.58-27.2l-2.78-10.69l-2.91,10.69L204.22,226.04z"/>
			<path class="st1" d="M274.58,166.37h29.28l20.54,55.79l4.02,14.02l4.02-14.02l20.54-55.79h28.45v94.37h-22.2l1.25-69.53
				l-7.22,23.45l-17.21,46.07h-16.1l-17.35-46.35l-7.08-23.04l1.25,69.39h-22.2V166.37z"/>
			<path class="st1" d="M456.66,243.11h-37.05l-6.25,17.62h-22.34l34.42-94.37h26.65l34.56,94.37h-23.73L456.66,243.11z
				 M425.72,226.04h24.84l-9.58-27.2l-2.78-10.69l-2.91,10.69L425.72,226.04z"/>
		</g>
		<g>
			<path class="st1" d="M601.47,262.26c-20.82,0-33.17-14.29-33.17-38.16c0-24.84,12.49-38.3,32.47-38.3
				c20.26,0,32.33,14.02,32.33,37.19v2.5h-55.65c0.42,18.46,9.16,29,24.01,29c11.52,0,19.84-5.97,22.76-17.62h9.3
				C629.5,254.08,617.56,262.26,601.47,262.26z M577.73,218.55h46.07c-1.39-15.82-9.58-24.98-23.04-24.98
				C587.17,193.57,579.12,202.31,577.73,218.55z"/>
			<path class="st1" d="M700.83,212.17c-2.22-12.21-10.55-18.6-21.51-18.6c-14.99,0-23.18,10.82-23.18,30.53
				c0,19.29,8.6,30.39,23.59,30.39c11.1,0,19.01-5.97,21.65-18.04h9.02c-3.47,18.04-15.27,25.81-30.95,25.81
				c-20.4,0-32.47-14.43-32.47-38.16c0-24.84,12.35-38.3,32.34-38.3c15.96,0,28.03,9.16,30.53,26.37H700.83z"/>
			<path class="st1" d="M774.8,187.32h9.02v73.41h-9.02v-12.49c-4.86,9.16-13.32,14.02-23.59,14.02c-15.27,0-24.01-9.16-24.01-25.81
				v-49.13h9.02v47.32c0,11.8,5.27,19.84,17.49,19.84c13.32,0,21.09-12.21,21.09-23.31V187.32z"/>
			<path class="st1" d="M805.2,187.32h9.02v13.46c4.86-9.99,13.05-14.99,22.62-14.99c2.78,0,5.27,0.56,6.66,1.53v8.19
				c-1.94-0.69-4.58-1.11-7.22-1.11c-14.99,0-22.07,11.1-22.07,24.15v42.19h-9.02V187.32z"/>
			<path class="st1" d="M855.85,166.37h9.02v10.27h-9.02V166.37z M855.85,187.32h9.02v73.41h-9.02V187.32z"/>
			<path class="st1" d="M887.63,194.54h-11.1v-7.22h11.1v-16.93h9.02v16.93h16.38v7.22h-16.38v46.07c0,9.71,2.78,14.02,14.02,14.02
				h2.22v6.52c-1.11,0.42-3.61,0.69-6.11,0.69c-13.32,0-19.15-6.52-19.15-21.23V194.54z"/>
			<path class="st1" d="M921.21,291.68v-6.94h3.19c9.3,0,11.52-1.53,19.01-19.01l2.91-6.94l-29.98-71.47h9.85l21.23,51.9l3.61,10.13
				l3.61-10.13l20.68-51.9h9.3l-34.14,83.27c-7.35,17.9-11.38,21.93-23.59,21.93C924.82,292.52,922.46,291.96,921.21,291.68z"/>
			<path class="st1" d="M507.79,205.92c0-7.36,5.97-12.77,16.51-12.77c11.24,0,18.46,5.13,20.26,18.04h9.02
				c-2.22-17.9-13.46-25.4-28.73-25.4c-17.35,0-25.67,9.71-25.67,20.82c0,30.25,48.02,11.38,48.02,34.28
				c0,8.33-6.52,14.15-18.87,14.15c-5.9,0-10.85-1.41-14.64-4.1l3.59,9.99c3.29,0.87,6.88,1.33,10.77,1.33
				c16.38,0,28.17-8.33,28.17-22.07C556.22,209.67,507.79,228.82,507.79,205.92z"/>
		</g>
	</g>
</g>
</svg>
